<?xml version="1.0" encoding="iso-8859-1"?>
<!-- Uploaded to: SVG Repo, www.svgrepo.com, Generator: SVG Repo Mixer Tools -->
<!DOCTYPE svg PUBLIC "-//W3C//DTD SVG 1.1//EN" "http://www.w3.org/Graphics/SVG/1.1/DTD/svg11.dtd">
<svg height="800px" width="800px" version="1.1" id="Capa_1" xmlns="http://www.w3.org/2000/svg" xmlns:xlink="http://www.w3.org/1999/xlink" 
	 viewBox="0 0 64.677 64.677" xml:space="preserve">
<path style="fill:#231F20;" d="M20.313,28.583c-8.676,0-15.735,7.059-15.735,15.735s7.059,15.735,15.735,15.735
	s15.735-7.059,15.735-15.735S28.989,28.583,20.313,28.583z M20.313,59.054c-8.125,0-14.735-6.61-14.735-14.735
	s6.61-14.735,14.735-14.735s14.735,6.61,14.735,14.735S28.438,59.054,20.313,59.054z M57.677,50.631c-3.519,0-6.432,2.613-6.92,6
	h-0.452V35.618c0-5.463-1.589-9.712-4.722-12.63c-4.927-4.587-11.822-4.152-12.041-4.133H21.167V8.548
	c0-2.484-0.773-4.492-2.299-5.966c-2.739-2.648-6.889-2.539-7.035-2.534H3.092c-0.552,0-1,0.448-1,1s0.448,1,1,1l8.774,0
	c0.034,0,3.476-0.093,5.611,1.972c1.121,1.083,1.689,2.607,1.689,4.528v10.307h-5.563c-0.552,0-1,0.448-1,1s0.448,1,1,1l5.563-0.001
	v3.21C8.5,24.664,0,33.505,0,44.319c0,11.2,9.112,20.313,20.313,20.313c5.621,0,10.715-2.297,14.396-6h16.048
	c0.488,3.387,3.401,6,6.92,6c3.86,0,7-3.14,7-7S61.537,50.631,57.677,50.631z M20.313,62.631C10.215,62.631,2,54.416,2,44.319
	s8.215-18.313,18.313-18.313s18.313,8.215,18.313,18.313S30.41,62.631,20.313,62.631z M40.625,44.319
	c0-10.912-8.656-19.817-19.458-20.269v-3.196l12.446-0.002c0.059-0.006,6.31-0.402,10.607,3.599
	c2.71,2.524,4.085,6.281,4.085,11.167v21.013H36.43C39.05,53.21,40.625,48.95,40.625,44.319z M57.677,62.631c-2.757,0-5-2.243-5-5
	s2.243-5,5-5s5,2.243,5,5S60.434,62.631,57.677,62.631z M58.76,57.631c0,0.598-0.485,1.083-1.083,1.083
	c-0.598,0-1.083-0.485-1.083-1.083c0-0.598,0.485-1.083,1.083-1.083C58.275,56.548,58.76,57.033,58.76,57.631z M21.313,39.128
	v-5.747c0-0.552-0.448-1-1-1s-1,0.448-1,1v5.747c-2.441,0.469-4.292,2.615-4.292,5.19c0,2.918,2.374,5.292,5.292,5.292
	s5.292-2.374,5.292-5.292C25.604,41.743,23.753,39.598,21.313,39.128z M20.313,47.61c-1.815,0-3.292-1.477-3.292-3.292
	c0-1.464,0.967-2.693,2.292-3.12v3.12c0,0.552,0.448,1,1,1s1-0.448,1-1v-3.12c1.324,0.426,2.292,1.655,2.292,3.12
	C23.604,46.133,22.127,47.61,20.313,47.61z M51.292,46.256V34.881c0-0.552,0.448-1,1-1s1,0.448,1,1v11.375c0,0.552-0.448,1-1,1
	S51.292,46.808,51.292,46.256z"/>
</svg>